<?xml version="1.0" encoding="UTF-8" standalone="no"?>
<!DOCTYPE svg PUBLIC "-//W3C//DTD SVG 1.1//EN"
 "http://www.w3.org/Graphics/SVG/1.1/DTD/svg11.dtd">
<!-- Generated by graphviz version 2.43.0 (0)
 -->
<!-- Title: G Pages: 1 -->
<svg width="612pt" height="533pt"
 viewBox="0.00 0.00 612.09 532.92" xmlns="http://www.w3.org/2000/svg" xmlns:xlink="http://www.w3.org/1999/xlink">
<g id="graph0" class="graph" transform="scale(1 1) rotate(0) translate(28.8 504.12)">
<title>G</title>
<polygon fill="#fbfcfe" stroke="transparent" points="-28.8,28.8 -28.8,-504.12 583.29,-504.12 583.29,28.8 -28.8,28.8"/>
<!-- Connecting&#45;&gt;Probing -->
<g id="edge1" class="edge">
<title>Connecting&#45;&gt;Probing</title>
<path fill="none" stroke="#2f7d32" stroke-width="2.4" d="M161.6,-40.36C190.04,-19.79 203.89,-13.2 229.08,-13.32"/>
<polygon fill="#2f7d32" stroke="#2f7d32" stroke-width="2.4" points="229,-16.47 238.1,-13.61 229.2,-10.17 229,-16.47"/>
<text text-anchor="middle" x="169.03" y="-22.29" font-family="Arial" font-size="12.00">connected</text>
</g>
<!-- Probing&#45;&gt;StartingWorkload -->
<g id="edge2" class="edge">
<title>Probing&#45;&gt;StartingWorkload</title>
<path fill="none" stroke="#2f7d32" stroke-width="2.4" d="M325.44,-18.38C339.46,-20.41 353.58,-25.46 378.46,-36.51"/>
<polygon fill="#2f7d32" stroke="#2f7d32" stroke-width="2.4" points="377.43,-39.5 386.93,-40.32 380.01,-33.76 377.43,-39.5"/>
<text text-anchor="middle" x="399.56" y="-30.86" font-family="Arial" font-size="12.00">probe succeeds</text>
</g>
<!-- Probing&#45;&gt;Restarting -->
<g id="edge8" class="edge">
<title>Probing&#45;&gt;Restarting</title>
<path fill="none" stroke="#b3261e" stroke-width="2.4" stroke-dasharray="5,2" d="M285.74,-36.28C330.43,-239.2 332.58,-257.11 292.2,-361.24"/>
<polygon fill="#b3261e" stroke="#b3261e" stroke-width="2.4" points="289.16,-360.37 288.82,-369.9 295.03,-362.66 289.16,-360.37"/>
<text text-anchor="middle" x="292.87" y="-239.21" font-family="Arial" font-size="12.00">probe fails (backoff)</text>
</g>
<!-- StartingWorkload&#45;&gt;Connected -->
<g id="edge3" class="edge">
<title>StartingWorkload&#45;&gt;Connected</title>
<path fill="none" stroke="#2f7d32" stroke-width="2.4" d="M439.04,-76.49C479.12,-133.02 487.93,-147.24 493.84,-175.88"/>
<polygon fill="#2f7d32" stroke="#2f7d32" stroke-width="2.4" points="490.76,-176.58 495.53,-184.83 496.95,-175.41 490.76,-176.58"/>
<text text-anchor="middle" x="438.76" y="-140.05" font-family="Arial" font-size="12.00">workload starts</text>
</g>
<!-- Connected&#45;&gt;Probing -->
<g id="edge4" class="edge">
<title>Connected&#45;&gt;Probing</title>
<path fill="none" stroke="#1565c0" stroke-width="2.4" d="M444.04,-184.95C362.83,-156.61 348.26,-139.35 295.99,-44.15"/>
<polygon fill="#1565c0" stroke="#1565c0" stroke-width="2.4" points="298.75,-42.62 291.66,-36.24 293.22,-45.64 298.75,-42.62"/>
<text text-anchor="middle" x="312.57" y="-130.41" font-family="Arial" font-size="12.00">timeoutEvent</text>
</g>
<!-- Connected&#45;&gt;BrokerConnectivityLost -->
<g id="edge5" class="edge">
<title>Connected&#45;&gt;BrokerConnectivityLost</title>
<path fill="none" stroke="#1565c0" stroke-width="2.4" d="M494.42,-221.14C480.24,-284.17 475.07,-301.15 453.53,-322.87"/>
<polygon fill="#1565c0" stroke="#1565c0" stroke-width="2.4" points="451.3,-320.65 447,-329.16 455.67,-325.18 451.3,-320.65"/>
<text text-anchor="middle" x="429.23" y="-290.92" font-family="Arial" font-size="12.00">1100 / 2110</text>
</g>
<!-- Connected&#45;&gt;Restarting -->
<g id="edge9" class="edge">
<title>Connected&#45;&gt;Restarting</title>
<path fill="none" stroke="#b3261e" stroke-width="2.4" stroke-dasharray="5,2" d="M487.66,-221.24C427.62,-322.35 412.02,-343.79 344.37,-367.89"/>
<polygon fill="#b3261e" stroke="#b3261e" stroke-width="2.4" points="343.33,-364.92 335.86,-370.85 345.4,-370.87 343.33,-364.92"/>
<text text-anchor="middle" x="380.86" y="-313.85" font-family="Arial" font-size="12.00">restart request</text>
</g>
<!-- Connected&#45;&gt;Stopping -->
<g id="edge11" class="edge">
<title>Connected&#45;&gt;Stopping</title>
<path fill="none" stroke="#6f3cc3" stroke-width="2.4" stroke-dasharray="5,2" d="M474.67,-221.07C315.88,-341.57 291.25,-355.69 165.73,-350.48"/>
<polygon fill="#6f3cc3" stroke="#6f3cc3" stroke-width="2.4" points="165.64,-347.32 156.51,-350.07 165.36,-353.61 165.64,-347.32"/>
<text text-anchor="middle" x="292.22" y="-336.32" font-family="Arial" font-size="12.00">stop()</text>
</g>
<!-- BrokerConnectivityLost&#45;&gt;Probing -->
<g id="edge6" class="edge">
<title>BrokerConnectivityLost&#45;&gt;Probing</title>
<path fill="none" stroke="#1565c0" stroke-width="2.4" d="M407.47,-329.19C295.14,-219.36 289.09,-205.7 282.76,-45.26"/>
<polygon fill="#1565c0" stroke="#1565c0" stroke-width="2.4" points="285.9,-44.87 282.4,-36 279.6,-45.12 285.9,-44.87"/>
<text text-anchor="middle" x="250.78" y="-202.1" font-family="Arial" font-size="12.00">1102 / grace expires</text>
</g>
<!-- BrokerConnectivityLost&#45;&gt;Restarting -->
<g id="edge7" class="edge">
<title>BrokerConnectivityLost&#45;&gt;Restarting</title>
<path fill="none" stroke="#b3261e" stroke-width="2.4" stroke-dasharray="5,2" d="M400.64,-365.58C376.37,-382.35 362.4,-389.99 345.34,-392.24"/>
<polygon fill="#b3261e" stroke="#b3261e" stroke-width="2.4" points="344.8,-389.13 336.07,-392.95 345.28,-395.41 344.8,-389.13"/>
<text text-anchor="middle" x="406.58" y="-387.86" font-family="Arial" font-size="12.00">restart request</text>
</g>
<!-- Restarting&#45;&gt;Connecting -->
<g id="edge10" class="edge">
<title>Restarting&#45;&gt;Connecting</title>
<path fill="none" stroke="#b3261e" stroke-width="2.4" stroke-dasharray="5,2" d="M263.79,-369.84C188.76,-293.53 182.75,-277.02 142.86,-85.68"/>
<polygon fill="#b3261e" stroke="#b3261e" stroke-width="2.4" points="145.92,-84.9 141,-76.73 139.75,-86.19 145.92,-84.9"/>
<text text-anchor="middle" x="128.84" y="-234.53" font-family="Arial" font-size="12.00">cleanup workload</text>
</g>
<!-- Restarting&#45;&gt;Stopping -->
<g id="edge12" class="edge">
<title>Restarting&#45;&gt;Stopping</title>
<path fill="none" stroke="#6f3cc3" stroke-width="2.4" stroke-dasharray="5,2" d="M227.7,-390.85C184.07,-392.31 167.35,-388.49 140.6,-370.78"/>
<polygon fill="#6f3cc3" stroke="#6f3cc3" stroke-width="2.4" points="142.37,-368.17 133.16,-365.69 138.81,-373.37 142.37,-368.17"/>
<text text-anchor="middle" x="162.02" y="-391.33" font-family="Arial" font-size="12.00">stop()</text>
</g>
<!-- Stopping&#45;&gt;Stopped -->
<g id="edge13" class="edge">
<title>Stopping&#45;&gt;Stopped</title>
<path fill="none" stroke="#6f3cc3" stroke-width="2.4" stroke-dasharray="5,2" d="M103.82,-365.81C95.28,-401.25 93.4,-413.8 98.17,-430.54"/>
<polygon fill="#6f3cc3" stroke="#6f3cc3" stroke-width="2.4" points="95.22,-431.67 101.04,-439.22 101.2,-429.69 95.22,-431.67"/>
<text text-anchor="middle" x="48" y="-408.64" font-family="Arial" font-size="12.00">disconnect socket</text>
</g>
<!-- Connecting -->
<g id="node1" class="node">
<title>Connecting</title>
<path fill="white" stroke="#1f2933" stroke-width="2" d="M183.2,-76.46C183.2,-76.46 91.2,-76.46 91.2,-76.46 85.2,-76.46 79.2,-70.46 79.2,-64.46 79.2,-64.46 79.2,-52.46 79.2,-52.46 79.2,-46.46 85.2,-40.46 91.2,-40.46 91.2,-40.46 183.2,-40.46 183.2,-40.46 189.2,-40.46 195.2,-46.46 195.2,-52.46 195.2,-52.46 195.2,-64.46 195.2,-64.46 195.2,-70.46 189.2,-76.46 183.2,-76.46"/>
<text text-anchor="middle" x="137.2" y="-54.06" font-family="Arial" font-size="18.00">Connecting</text>
</g>
<!-- Probing -->
<g id="node2" class="node">
<title>Probing</title>
<path fill="white" stroke="#1f2933" stroke-width="2" d="M313.21,-36C313.21,-36 250.21,-36 250.21,-36 244.21,-36 238.21,-30 238.21,-24 238.21,-24 238.21,-12 238.21,-12 238.21,-6 244.21,0 250.21,0 250.21,0 313.21,0 313.21,0 319.21,0 325.21,-6 325.21,-12 325.21,-12 325.21,-24 325.21,-24 325.21,-30 319.21,-36 313.21,-36"/>
<text text-anchor="middle" x="281.71" y="-13.6" font-family="Arial" font-size="18.00">Probing</text>
</g>
<!-- StartingWorkload -->
<g id="node3" class="node">
<title>StartingWorkload</title>
<path fill="white" stroke="#1f2933" stroke-width="2" d="M495.23,-76.46C495.23,-76.46 357.23,-76.46 357.23,-76.46 351.23,-76.46 345.23,-70.46 345.23,-64.46 345.23,-64.46 345.23,-52.46 345.23,-52.46 345.23,-46.46 351.23,-40.46 357.23,-40.46 357.23,-40.46 495.23,-40.46 495.23,-40.46 501.23,-40.46 507.23,-46.46 507.23,-52.46 507.23,-52.46 507.23,-64.46 507.23,-64.46 507.23,-70.46 501.23,-76.46 495.23,-76.46"/>
<text text-anchor="middle" x="426.23" y="-54.06" font-family="Arial" font-size="18.00">StartingWorkload</text>
</g>
<!-- Connected -->
<g id="node4" class="node">
<title>Connected</title>
<path fill="white" stroke="#1f2933" stroke-width="2" d="M542.49,-220.98C542.49,-220.98 454.49,-220.98 454.49,-220.98 448.49,-220.98 442.49,-214.98 442.49,-208.98 442.49,-208.98 442.49,-196.98 442.49,-196.98 442.49,-190.98 448.49,-184.98 454.49,-184.98 454.49,-184.98 542.49,-184.98 542.49,-184.98 548.49,-184.98 554.49,-190.98 554.49,-196.98 554.49,-196.98 554.49,-208.98 554.49,-208.98 554.49,-214.98 548.49,-220.98 542.49,-220.98"/>
<text text-anchor="middle" x="498.49" y="-198.58" font-family="Arial" font-size="18.00">Connected</text>
</g>
<!-- BrokerConnectivityLost -->
<g id="node5" class="node">
<title>BrokerConnectivityLost</title>
<path fill="white" stroke="#1f2933" stroke-width="2" d="M496.73,-365.49C496.73,-365.49 355.73,-365.49 355.73,-365.49 349.73,-365.49 343.73,-359.49 343.73,-353.49 343.73,-353.49 343.73,-341.49 343.73,-341.49 343.73,-335.49 349.73,-329.49 355.73,-329.49 355.73,-329.49 496.73,-329.49 496.73,-329.49 502.73,-329.49 508.73,-335.49 508.73,-341.49 508.73,-341.49 508.73,-353.49 508.73,-353.49 508.73,-359.49 502.73,-365.49 496.73,-365.49"/>
<text text-anchor="middle" x="426.23" y="-343.09" font-family="Arial" font-size="18.00">BrokerConnectivityLost</text>
</g>
<!-- Restarting -->
<g id="node6" class="node">
<title>Restarting</title>
<path fill="white" stroke="#1f2933" stroke-width="2" d="M323.71,-405.96C323.71,-405.96 239.71,-405.96 239.71,-405.96 233.71,-405.96 227.71,-399.96 227.71,-393.96 227.71,-393.96 227.71,-381.96 227.71,-381.96 227.71,-375.96 233.71,-369.96 239.71,-369.96 239.71,-369.96 323.71,-369.96 323.71,-369.96 329.71,-369.96 335.71,-375.96 335.71,-381.96 335.71,-381.96 335.71,-393.96 335.71,-393.96 335.71,-399.96 329.71,-405.96 323.71,-405.96"/>
<text text-anchor="middle" x="281.71" y="-383.56" font-family="Arial" font-size="18.00">Restarting</text>
</g>
<!-- Stopping -->
<g id="node7" class="node">
<title>Stopping</title>
<path fill="#f5f7fa" stroke="#52606d" stroke-width="2" d="M144.3,-365.49C144.3,-365.49 72.3,-365.49 72.3,-365.49 66.3,-365.49 60.3,-359.49 60.3,-353.49 60.3,-353.49 60.3,-341.49 60.3,-341.49 60.3,-335.49 66.3,-329.49 72.3,-329.49 72.3,-329.49 144.3,-329.49 144.3,-329.49 150.3,-329.49 156.3,-335.49 156.3,-341.49 156.3,-341.49 156.3,-353.49 156.3,-353.49 156.3,-359.49 150.3,-365.49 144.3,-365.49"/>
<text text-anchor="middle" x="108.3" y="-343.09" font-family="Arial" font-size="18.00">Stopping</text>
</g>
<!-- Stopped -->
<g id="node8" class="node">
<title>Stopped</title>
<path fill="#f5f7fa" stroke="#52606d" stroke-width="2" d="M142.8,-475.32C142.8,-475.32 73.8,-475.32 73.8,-475.32 67.8,-475.32 61.8,-469.32 61.8,-463.32 61.8,-463.32 61.8,-451.32 61.8,-451.32 61.8,-445.32 67.8,-439.32 73.8,-439.32 73.8,-439.32 142.8,-439.32 142.8,-439.32 148.8,-439.32 154.8,-445.32 154.8,-451.32 154.8,-451.32 154.8,-463.32 154.8,-463.32 154.8,-469.32 148.8,-475.32 142.8,-475.32"/>
<text text-anchor="middle" x="108.3" y="-452.92" font-family="Arial" font-size="18.00">Stopped</text>
</g>
</g>
</svg>
