<svg xmlns="http://www.w3.org/2000/svg" xmlns:xlink="http://www.w3.org/1999/xlink" xmlns:lucid="lucid" width="1148.33" height="794"><g transform="translate(92.33333333333326 -62)" lucid:page-tab-id="page1"><path d="M-500 0h2000v1000H-500z" fill="#fff"/><path d="M105 371a6 6 0 0 1 6-6h128a6 6 0 0 1 6 6v46a6 6 0 0 1-6 6H111a6 6 0 0 1-6-6z" stroke="#2b2b2b" stroke-width="2" fill="#fff"/><use xlink:href="#a" transform="matrix(1,0,0,1,110,370) translate(15.378109452736316 28.177238805970156)"/><path d="M500 69a6 6 0 0 1 6-6h128a6 6 0 0 1 6 6v46a6 6 0 0 1-6 6H506a6 6 0 0 1-6-6z" stroke="#2b2b2b" stroke-width="2" fill="#fff"/><use xlink:href="#b" transform="matrix(1,0,0,1,505,68) translate(31.248756218905474 28.177238805970156)"/><path d="M885 371a6 6 0 0 1 6-6h158a6 6 0 0 1 6 6v46a6 6 0 0 1-6 6H891a6 6 0 0 1-6-6z" stroke="#2b2b2b" stroke-width="2" fill="#fff"/><use xlink:href="#c" transform="matrix(1,0,0,1,890,370) translate(5.2537313432835795 28.177238805970156)"/><path d="M500 686a6 6 0 0 1 6-6h128a6 6 0 0 1 6 6v46a6 6 0 0 1-6 6H506a6 6 0 0 1-6-6z" stroke="#2b2b2b" stroke-width="2" fill="#fff"/><use xlink:href="#d" transform="matrix(1,0,0,1,505,685) translate(17.539800995024876 28.177238805970156)"/><path d="M845 776a6 6 0 0 1 6-6h128a6 6 0 0 1 6 6v46a6 6 0 0 1-6 6H851a6 6 0 0 1-6-6z" stroke="#2b2b2b" stroke-width="2" fill="#f0eef7"/><use xlink:href="#e" transform="matrix(1,0,0,1,850,775) translate(26.296019900497512 28.177238805970156)"/><path d="M555 786a6 6 0 0 1 6-6h128a6 6 0 0 1 6 6v46a6 6 0 0 1-6 6H561a6 6 0 0 1-6-6z" stroke="#555" stroke-width="2" fill="#e3e3e3"/><use xlink:href="#f" transform="matrix(1,0,0,1,560,785) translate(28.457711442786074 28.177238805970156)"/><path d="M685 341a6 6 0 0 1 6-6h158a6 6 0 0 1 6 6v46a6 6 0 0 1-6 6H691a6 6 0 0 1-6-6z" stroke="#2b2b2b" stroke-width="2" fill="#fff"/><use xlink:href="#g" transform="matrix(1,0,0,1,690,340) translate(4.378109452736319 28.177238805970156)"/><path d="M245 541a6 6 0 0 1 6-6h128a6 6 0 0 1 6 6v46a6 6 0 0 1-6 6H251a6 6 0 0 1-6-6z" stroke="#2b2b2b" stroke-width="2" fill="#fff"/><use xlink:href="#h" transform="matrix(1,0,0,1,250,540) translate(20.330845771144276 28.177238805970156)"/><path d="M476.36 76l-1.53.07-15.85 1.33-15.6 1.96-15.3 2.6-14.97 3.17-14.6 3.76-14.23 4.28-13.8 4.8-13.36 5.3-12.9 5.73-12.4 6.17-11.92 6.56-11.42 6.9-10.9 7.26-10.4 7.54-9.9 7.84-9.38 8.1-8.88 8.34-8.4 8.56-7.9 8.77-7.4 8.97-6.96 9.15-6.5 9.34-6.03 9.53-5.58 9.68-5.16 9.88-4.73 10.04-4.3 10.23-3.87 10.4-3.45 10.63-3 10.82-2.6 11.05-2.16 11.3-1.7 11.54L178 339.4l-.76 12.12-.22 10.5-3.95-.1.22-10.52v-.08l.76-12.2v-.08l1.26-11.92v-.08l1.72-11.63v-.06h.02v-.02l2.16-11.37v-.04h.02v-.02l2.6-11.14h.02v-.08l3.06-10.9v-.06h.02v-.02l3.48-10.7v-.04h.02v-.02l3.9-10.5v-.02h.02v-.06h.02l4.33-10.3v-.02h.02V250h.02v-.02l4.76-10.12v-.02h.02v-.04h.02v-.02l5.2-9.93v-.04h.02v-.02h.02l5.63-9.77h.02v-.02h.02v-.04l6.1-9.58v-.02h.02v-.04h.02l6.54-9.4v-.04h.02v-.02h.02v-.02l7-9.22h.02v-.04h.02v-.02h.02l7.47-9.04v-.02h.02v-.02h.02v-.02l7.96-8.84h.02v-.02h.02v-.02h.02v-.02l8.44-8.62h.02v-.02h.02v-.02h.02l8.94-8.4v-.02h.02v-.02h.02v-.02h.02l9.45-8.16h.02v-.02h.02v-.02h.02l9.97-7.9h.02v-.02h.02v-.02h.02l10.46-7.6v-.02h.02l.02-.02h.02v-.02l11-7.3h.02v-.02h.02v-.02h.02l11.5-6.95v-.02h.06v-.02l12-6.6h.04v-.02h.02l12.5-6.2h.02v-.02h.04v-.02l12.98-5.77h.02v-.02h.04l.02-.02 13.44-5.3h.02v-.02h.04l13.9-4.85h.04v-.02.02h.02l14.3-4.33h.02l.02-.02h.04l14.7-3.78h.06v-.02h.02l15.06-3.2h.08v-.02l15.4-2.6h.06l15.68-2h.08l15.94-1.33h.08l1.57-.07z" stroke="#2e9f48" stroke-width=".05" fill="#2e9f48"/><path d="M177.02 362l-.05 2h-3.95l.05-2.1z" fill="#2e9f48"/><path stroke="#2e9f48" stroke-width=".05" fill="#2e9f48"/><path d="M492.53 73.53L478.4 78.6l-.27-9.27z" fill="#2e9f48"/><path d="M498.92 73.34l-22.4 8.04-.45-14.7zm-18.62 2.48l5.84-2.1L480.2 72zM883.9 173.1v.02h.02v.02h.02l8.7 7.83v.02h.04v.02l8.14 7.96v.02h.02v.02h.02v.02h.02l7.6 8.08v.02h.02v.02h.02v.02l7.08 8.2v.02h.02v.02h.02v.02l6.6 8.32h.02v.04h.02v.02h.02l6.12 8.44v.02h.02v.02h.02v.02l5.68 8.55h.02v.02l.02.02v.02l5.25 8.66.02.02v.02h.02v.02l4.84 8.8h.02v.04h.02v.02l4.43 8.93v.02h.02v.04l4.04 9.07h.02v.06h.02l3.65 9.23v.02l.02.02v.02l3.28 9.4v.04l.02.02 2.9 9.6v.06h.02l2.5 9.8v.02h.02v.06l2.13 10.02v.08l1.75 10.27v.06l1.34 10.56v.08l.44 5.1-3.94.32-.42-5.05-1.32-10.45-1.73-10.2-2.1-9.93-2.5-9.7-2.87-9.5-3.24-9.32-3.62-9.14-4-9-4.4-8.84-4.8-8.7-5.2-8.6-5.62-8.48-6.07-8.36-6.54-8.25-7.04-8.14-7.53-8.03-8.07-7.9-8.62-7.76-9.2-7.6-3.5-2.66h6.48zM659.07 90.4h.08l17.87 1.13h.08l17.6 1.86h.08l17.26 2.54h.06v.02h.02l16.83 3.2h.02v.02h.04l16.35 3.84h.06v.02l15.8 4.4h.02l.02.02h.02l15.18 4.93h.06v.02h.02l14.53 5.4h.04v.02h.04l13.87 5.84h.04v.02h.02l13.2 6.22h.02v.02h.04v.02l12.52 6.53h.04v.02h.02l11.84 6.84h.02v.02h.02l.02.02 1.34.84h-7.77l-7.4-4.27-12.43-6.5-13.12-6.16-13.8-5.8-14.44-5.36-15.1-4.9-15.7-4.4-16.25-3.8-16.76-3.2-17.17-2.53-17.53-1.83-17.78-1.12-16-.33.1-3.95z" stroke="#2e9f48" stroke-width=".05" fill="#2e9f48"/><path d="M643.1 90.07l-.1 3.95-2-.05v-3.95z" fill="#2e9f48"/><path stroke="#2e9f48" stroke-width=".05" fill="#2e9f48"/><path d="M969.7 357.53l-5.25-14.04 9.26-.42z" fill="#2e9f48"/><path d="M970 363.92l-8.36-22.28 14.7-.66zm-2.75-18.58l2.18 5.8 1.65-5.97z" stroke="#2e9f48" stroke-width=".05" fill="#2e9f48"/><use xlink:href="#i" transform="matrix(1,0,0,1,742.7353768029701,144.244642857675) translate(0 14.4)"/><use xlink:href="#j" transform="matrix(1,0,0,1,742.7353768029701,144.244642857675) translate(50.95 14.4)"/><use xlink:href="#k" transform="matrix(1,0,0,1,742.7353768029701,144.244642857675) translate(131.95 14.4)"/><use xlink:href="#l" transform="matrix(1,0,0,1,742.7353768029701,144.244642857675) translate(156.95 14.4)"/><path d="M824 656.26h-.02v.02h-.04v.02l-12.85 6.37h-.04v.02H811l-13.52 6.02h-.02v.02h-.06l-14.17 5.63h-.04v.02h-.02l-14.83 5.15h-.02l-.02.02h-.02l-15.43 4.66h-.04v.02h-.02l-16 4.1h-.02v.02h-.06l-16.52 3.52h-.08l-16.96 2.87h-.08l-17.34 2.2h-.08l-17.64 1.5h-.08l-4.1.17-.18-3.95 4.07-.18 17.56-1.47 17.26-2.18L719.4 688l16.43-3.48 15.92-4.08 15.34-4.63 14.73-5.12 14.1-5.58 13.44-5.98 12.77-6.34.6-.34h8.2zm147.93-230.2l-.2 9.44v.08l-.7 11.1v.08l-1.13 10.78v.08l-1.56 10.48v.08l-1.96 10.22v.06h-.02v.02l-2.34 9.97v.06H964l-2.72 9.77v.02h-.02v.04l-3.1 9.57h-.02v.06h-.02l-3.5 9.38v.06h-.02v.02l-3.87 9.2v.04h-.02v.04l-4.27 9.07v.04h-.02v.04l-4.67 8.93v.02h-.02v.06l-5.1 8.8v.04h-.02v.02l-5.5 8.67-.02.02v.02h-.02v.02l-.02.02-5.94 8.54v.02h-.02v.04h-.02l-6.4 8.44h-.02v.04h-.02v.02h-.02l-6.88 8.32v.02h-.02v.02h-.02v.02l-7.4 8.2v.02h-.02v.02h-.02v.02l-7.9 8.06h-.02v.02h-.02v.02h-.02v.02l-8.45 7.93v.02h-.04v.02l-9.03 7.8h-.02v.02h-.02v.02l-9.63 7.62H869v.02H869v.02l-4.16 3.02h-6.73l8.53-6.2 9.55-7.55 8.95-7.74 8.4-7.87 7.83-8.02 7.33-8.13 6.8-8.25 6.36-8.36 5.9-8.48 5.45-8.6 5.05-8.72 4.62-8.85 4.23-9 3.84-9.13 3.46-9.3 3.08-9.48 2.7-9.7 2.33-9.88 1.94-10.14 1.53-10.4 1.13-10.7.7-11 .18-9.42z" stroke="#2e9f48" stroke-width=".05" fill="#2e9f48"/><path d="M971.93 426.1l-3.95-.1.04-2H972z" fill="#2e9f48"/><path stroke="#2e9f48" stroke-width=".05" fill="#2e9f48"/><path d="M661.87 701.36l-14.4-4.22 14.12-5.05z" fill="#2e9f48"/><path d="M663.92 704l-22.84-6.67 22.4-8.02zm-10.06-7.05l5.95 1.75-.1-3.84z" stroke="#2e9f48" stroke-width=".05" fill="#2e9f48"/><use xlink:href="#m" transform="matrix(1,0,0,1,785.0637502761934,630.8419051774371) translate(0 14.4)"/><use xlink:href="#n" transform="matrix(1,0,0,1,785.0637502761934,630.8419051774371) translate(76.85000000000001 14.4)"/><path d="M910.75 737.04v.04h.02v.02l.95 2.38v.04h.02l.88 2.54v.06l.83 2.7v.04l.75 2.9v.04h.02l.08.43-2.88.6-.08-.38-.73-2.82-.78-2.63-.86-2.47-.92-2.32-1.02-2.28 2.7-1.2zm-28.8-29.84h.02v.02h.02l2.7 1.4v.02h.04v.02l2.47 1.42h.02v.02h.04l2.28 1.46h.02v.02h.02v.02h.02l2.12 1.47h.02v.02h.02l2 1.5v.02h.02v.02l1.86 1.54h.02v.02h.02v.02l1.75 1.56.02.02v.02h.02l1.64 1.6h.02v.02h.02v.02l1.56 1.66h.02v.02l.02.02 1.24 1.44-2.23 1.93-1.22-1.42-1.5-1.6-1.6-1.55-1.7-1.52-1.8-1.5-1.92-1.45-2.06-1.44-2.23-1.42-2.4-1.4-2.63-1.37-2.8-1.32 1.24-2.67zm-225.43 2.93l-13.98.3-.07-2.94 13.98-.32zm41.95-2.83l-9.03.8h-.02l-18.88 1.23-.2-2.95 18.86-1.23 9-.8zm41.8-3.65l-27.87 2.44-.26-2.95L740 700.7zm105.18-6.5h.04l6.88 1.02h.06l5.88 1.12h.06l5.1 1.2h.06v.02l2.17.6-.8 2.84-2.13-.6-5.03-1.17-5.82-1.12-6.8-1-7.5-.78.3-2.94zm-69.98 3.43l-21.28 1.85-.26-2.93 21.53-1.88zm48.38-5l-.06 2.96-2.42-.05v-2.96z" stroke="#7b4bb7" stroke-width=".05" fill="#7b4bb7"/><path d="M642.57 710.44l-1.57.03v-2.95l1.5-.03z" fill="#7b4bb7"/><path stroke="#7b4bb7" stroke-width=".05" fill="#7b4bb7"/><path d="M914.5 764.17l-6.1-13.7 9.22-.97z" fill="#7b4bb7"/><path d="M915 768.92l-8.77-19.7 13.26-1.4zm-4.42-17.2l3.42 7.7 1.76-8.24z" stroke="#7b4bb7" stroke-width=".05" fill="#7b4bb7"/><use xlink:href="#o" transform="matrix(1,0,0,1,775.4754755643233,686.4236763422833) translate(0 14.4)"/><path d="M727 809.7l-4.25.26h-.04l-6.06.12-.05-2.95 6-.12 4.4-.26zm87.52-8.53l-1.56.1v-2.96l1.38-.08zm28-.67l-14.03.27-.07-2.95 14.04-.27z" stroke="#7b4bb7" stroke-width=".05" fill="#7b4bb7"/><path d="M844 800.48l-1.5.02-.07-2.95 1.57-.02z" fill="#7b4bb7"/><path stroke="#7b4bb7" stroke-width=".05" fill="#7b4bb7"/><path d="M715.2 813.27l-14.35-4.36 14.18-4.9z" fill="#7b4bb7"/><path d="M716.72 815.27L696.08 809l20.38-7.06zm-11.1-6.45l8.07 2.44-.1-5.2z" stroke="#7b4bb7" stroke-width=".05" fill="#7b4bb7"/><use xlink:href="#p" transform="matrix(1,0,0,1,727.0098902924335,793.0764039284419) translate(0 14.4)"/><path d="M538.7 123.5l11.2 534.9" stroke="#2b73d6" stroke-width="3" stroke-linejoin="round" fill="none"/><path d="M540.17 123.52l-2.95.06-.03-1.58h2.94z" stroke="#2b73d6" stroke-width=".05" fill="#2b73d6"/><path d="M550.23 674.15l-4.93-14.17 9.27-.2z" stroke="#2b73d6" stroke-width="3" fill="#2b73d6"/><path d="M769.95 414.76l-.37 2.5v.06l-1 5.18v.04l-1.18 5.03v.02l-.02.02-1.36 4.9v.02l-.02.02-1.55 4.8v.02h-.02v.02l-1.75 4.72v.02h-.02v.02l-1.97 4.67v.02h-.02v.04l-2.2 4.63v.04h-.02v.02l-2.43 4.63v.02H756v.04l-2.7 4.67h-.02v.04h-.02l-3.02 4.77h-.02v.02h-.02v.02l-3.4 4.87v.04h-.02v.02l-3.83 5.04v.02h-.02v.02h-.02l-4.35 5.28-.02.02v.02h-.02l-5.03 5.6h-.02v.02h-.02v.02l-5.95 6.07h-.02v.02h-.02l-7.23 6.8h-.02v.02l-9.3 8v.02h-.02v.02h-.04v.02l-66.3 49.1-13.5 10.66-9.24 7.95-7.18 6.72-5.9 6.02-5 5.55-4.32 5.2-3.8 5-3.34 4.82-3 4.7-2.67 4.64-2.4 4.6-2.16 4.58-1.92 4.6-1.73 4.65-1.53 4.7-1.35 4.84-1.16 4.95-.97 5.1-.78 5.3-.58 5.55-.37 5.8-.1 4.68-2.94-.06.1-4.7v-.06l.37-5.87v-.04l.6-5.6v-.06l.8-5.38v-.06l1-5.17v-.04l1.17-5.03v-.02l.02-.02 1.36-4.9v-.02l.02-.02 1.55-4.8v-.02h.02v-.02l1.75-4.72v-.02h.02v-.02l1.97-4.67v-.02h.02v-.04l2.2-4.63v-.04h.02v-.02l2.43-4.63v-.02h.02v-.04l2.7-4.67h.02v-.04h.02l3.02-4.77h.02v-.02h.02v-.02l3.4-4.87v-.04h.02v-.02l3.83-5.04v-.02h.02v-.02h.02l4.35-5.28.02-.02v-.02h.02l5.03-5.6h.02v-.02h.02v-.02l5.95-6.07h.02v-.02h.02l7.23-6.78v-.02h.02v-.02l9.3-8v-.02h.02v-.02h.02l13.54-10.7h.02v-.02h.02L709 505.44l9.22-7.94 7.18-6.72 5.9-6.02 5-5.55 4.32-5.2 3.8-5 3.34-4.82 3-4.7 2.67-4.64 2.4-4.6 2.16-4.58 1.92-4.6 1.73-4.65 1.53-4.7 1.35-4.84 1.16-4.95.97-5.1.36-2.47z" stroke="#2b73d6" stroke-width=".05" fill="#2b73d6"/><path d="M571.5 677.5l-.02 1.5h-2.96l.04-1.57z" fill="#2b73d6"/><path stroke="#2b73d6" stroke-width=".05" fill="#2b73d6"/><path d="M773.22 413.4l-9.24-.67 5.66-13.9z" fill="#2b73d6"/><path d="M775.14 415.03l-13.3-.98 8.15-19.97zm-9.03-3.62l5.2.4-2-8.2z" stroke="#2b73d6" stroke-width=".05" fill="#2b73d6"/><use xlink:href="#q" transform="matrix(1,0,0,1,678.8168813998258,526.2694830065112) translate(0 14.4)"/><use xlink:href="#r" transform="matrix(1,0,0,1,678.8168813998258,526.2694830065112) translate(91.95 14.4)"/><path d="M574.58 143.6l.92 2.82 1.04 2.8 1.18 2.8 1.3 2.8 1.48 2.8 1.65 2.85 1.83 2.9 2.06 2.95 2.3 3.05 2.62 3.15 2.96 3.3 3.4 3.45 3.93 3.7 4.62 3.97 5.54 4.4 6.87 4.96 8.9 5.9 74.1 41.18h.02v.02h.02l13.04 7.87h.02v.02h.04l8.97 5.95v.02h.02v.02h.02l6.9 5h.02v.02h.02l5.6 4.44h.02v.02h.02v.02l4.68 4.03h.02v.02h.02v.02l4 3.73v.02h.02v.02l3.45 3.5v.02h.02v.02h.02v.02l3 3.33h.02v.02h.02v.02l2.66 3.2v.02h.02v.02h.02l2.35 3.1v.02h.02v.02l2.1 3.02h.02v.04h.02l1.86 2.95v.02h.02v.02l1.7 2.9v.04l.02.02 1.5 2.87v.02h.02v.02l1.35 2.85v.04h.02l1.2 2.86v.06l1.08 2.86v.04h.02v.02l.94 2.88v.06l.83 2.92v.06l.7 2.97v.02h.02v.04l.57 3.02v.06l.47 3.12v.06l.35 3.2v.06l.2 3.33v.04l.04 1.97-2.95.06-.05-1.93-.2-3.26-.33-3.14-.45-3.05-.57-2.98-.68-2.9-.8-2.87-.92-2.82-1.04-2.8-1.18-2.8-1.3-2.8-1.48-2.8-1.65-2.85-1.83-2.9-2.06-2.95-2.3-3.05-2.62-3.15-2.96-3.3-3.4-3.45-3.93-3.7-4.62-3.97-5.54-4.4-6.87-4.96-8.92-5.92-12.98-7.84-74.14-41.2h-.04v-.02h-.04v-.02h-.02l-8.97-5.95v-.02h-.02v-.02h-.02l-6.9-5h-.02v-.02h-.02v-.02l-5.6-4.42H604v-.02h-.02v-.02l-4.68-4.03h-.02v-.02h-.02v-.02l-4-3.73v-.02h-.02v-.02l-3.45-3.5v-.02h-.02v-.02h-.02v-.02l-3-3.33h-.02v-.02h-.02v-.02l-2.66-3.2v-.02h-.02v-.02H586l-2.35-3.1v-.02h-.02v-.02l-2.1-3V165h-.02v-.04h-.02l-1.86-2.95V162h-.02v-.02l-1.7-2.9v-.04l-.02-.02-1.5-2.87v-.02h-.02v-.02l-1.35-2.85v-.04H575l-1.2-2.86v-.06l-1.08-2.86v-.04h-.02v-.02l-.94-2.88v-.06l-.47-1.65 2.83-.8z" stroke="#2b73d6" stroke-width=".05" fill="#2b73d6"/><path d="M771.48 334h-2.96l-.03-1.5 2.94-.07z" fill="#2b73d6"/><path stroke="#2b73d6" stroke-width=".05" fill="#2b73d6"/><path d="M577.1 140.34l-9.18 1.22 2.72-14.75z" fill="#2b73d6"/><path d="M579.32 141.54l-13.2 1.75 3.9-21.22zm-9.58-1.7l5.17-.7-3.63-7.6z" stroke="#2b73d6" stroke-width=".05" fill="#2b73d6"/><path d="M319.16 499.1l-.94 6.42-.85 8.04-2.93-.3.85-8.08v-.06l.95-6.45zm11.54-41.87l-.53 1.27-2.73 7.32-2.42 7.46-2.14 7.65-.92 3.94-2.87-.67.92-3.98v-.06l2.17-7.7v-.06l2.45-7.52v-.04h.02v-.02l2.74-7.38h.02v-.04l.56-1.3zM351.47 419l-2.2 3.17-4.7 7.4-4.2 7.3-3.74 7.12-2.6-1.37 3.73-7.16v-.02h.02v-.04l4.25-7.32v-.02h.02v-.02l4.75-7.48v-.02h.02v-.02h.02l2.2-3.2zm27.84-33.54l-3.33 3.4-8.3 9.22-7.02 8.47-.55.72-2.35-1.78.56-.76h.02v-.02h.02v-.02l7.06-8.52h.02v-.04h.02l8.36-9.27v-.02h.02v-.02h.02l3.36-3.44zm32.25-29.52l-11.78 9.77-10.12 9.5-2.02-2.15 10.16-9.52v-.02h.02l.02-.02 11.82-9.8zm11.26-9.35l-1.88-2.28 6.42-5.32h4.62zm56.12-47l-14.72 12.63-6.22 5.16h-2.35l-.93-1.12 7.6-6.3 14.7-12.62zm32.02-30.2l-10.05 10.26h-.02v.02h-.02v.02h-.02l-10.88 10.2-2.02-2.15 10.86-10.18 10.03-10.23zm27.58-34.47l-.32.5v.02h-.02v.04h-.02l-5.34 7.68v.02h-.02v.02h-.02l-6.1 8.04v.02h-.02v.02l-5.9 7.1-2.26-1.88 5.85-7.07 6.06-7.98 5.32-7.64.3-.48zm20.14-39.25l-1.07 2.88h-.02v.06l-3.08 7.3v.02h-.02v.02l-3.42 7.25v.04h-.02v.02l-3.8 7.27v.02h-.02v.04l-1.05 1.78-2.55-1.47 1.02-1.76 3.77-7.2 3.4-7.2 3.04-7.24 1.05-2.85zm10.75-42.78l-.96 6.57v.06l-1.58 8.23v.04h-.02l-1.86 7.96v.06l-1.65 5.85-2.84-.8 1.62-5.83 1.85-7.88 1.55-8.2.97-6.53zm2.04-29.36l-.18 8.62v.06l-.37 6-2.96-.2.38-5.95.17-8.6z" stroke="#c53a3a" stroke-width=".05" fill="#c53a3a"/><path d="M571.44 123.58l-2.95-.07.02-1.5h2.96z" fill="#c53a3a"/><path stroke="#c53a3a" stroke-width=".05" fill="#c53a3a"/><path d="M320.47 515.1l-5.26 14.05-4-14.45z" fill="#c53a3a"/><path d="M322.56 513.72l-7.56 20.2-5.75-20.8zm-7.14 10.66l2.96-7.9-5.2-.22z" stroke="#c53a3a" stroke-width=".05" fill="#c53a3a"/><use xlink:href="#i" transform="matrix(1,0,0,1,401.2352689902608,317.3946325139373) translate(0 14.4)"/><use xlink:href="#s" transform="matrix(1,0,0,1,401.2352689902608,317.3946325139373) translate(50.95 14.4)"/><path d="M497.5 708.97l-14.68-.3m-14.65-.9l-1.34-.1-14.55-1.52-13.24-1.95m-14.4-2.84l-8.64-2.02-9.8-2.73-8.8-2.85-1-.37m-13.64-5.4l-.4-.16-6.43-3.03-5.82-3.05-5.28-3.05-4.8-3.06-2.85-1.96m-11.45-9.16l-1.18-1.06-3.1-3.05-2.88-3.04-2.66-3.08-2.44-3.08-2.27-3.12-2.1-3.14-1.86-3.08m-6.27-13.26l-.06-.17-1.22-3.52-1.1-3.62-.96-3.75-.64-3.04" stroke="#c53a3a" stroke-width="3" stroke-linejoin="round" fill="none"/><path d="M499 707.52v2.96l-1.57-.04.06-2.95z" stroke="#c53a3a" stroke-width=".05" fill="#c53a3a"/><path d="M315.47 598.83l5.98 13.76-9.23.88z" stroke="#c53a3a" stroke-width="3" fill="#c53a3a"/><path d="M682.5 364.03l-5.27.1-6.4.4-3.02.33m-14.52 2.26l-5.37 1.26-5.26 1.47-5.15 1.67-5.08 1.9-5.02 2.1-1.96.92m-13 6.9l-.06.05-5.12 3.24-5.25 3.65-5.43 4.12-5.72 4.73-1.95 1.76m-10.67 10.14l-.18.18-7.63 8.14L561 430.3l-2.22 2.8m-9.1 11.57l-3.86 4.9L531.7 468m-8.93 11.68L509 497.7l-4.4 5.1m-9.8 10.95l-2.85 3.03-6.7 6.56-6.1 5.5-5.72 4.74-.2.16m-11.97 8.56l-3.64 2.3-5.04 2.92-5 2.62-4.98 2.34-5.02 2.1-2.53.95M421 559.88l-4.32 1-5.6 1.08-4.52.67" stroke="#c53a3a" stroke-width="3" stroke-linejoin="round" fill="none"/><path d="M684 365.48l-1.5.03-.07-2.94 1.57-.04z" stroke="#c53a3a" stroke-width=".05" fill="#c53a3a"/><path d="M390.84 563.68l13.93-5.58.62 9.25z" stroke="#c53a3a" stroke-width="3" fill="#c53a3a"/><path d="M242.5 563.97l-1.55-.03-2.86-.18-2.7-.28-2.55-.38-2.4-.46-2.3-.54-2.22-.62-.13-.04m-15.1-7.5l-.04-.02-1.73-1.3-1.7-1.42-1.7-1.53-1.7-1.64-1.66-1.78-1.67-1.94-1.66-2.1-1.68-2.3-1.67-2.52-1.7-2.78-1.7-3.08-1.7-3.43-.26-.62m-5.9-15.87l-.7-2.34-1.7-6.6-1.64-7.8-1.57-9.33-.9-7.13m-1.58-16.86l-.18-2.16-.6-14.76" stroke="#c53a3a" stroke-width="3" stroke-linejoin="round" fill="none"/><path d="M244 562.52v2.96l-1.57-.04.06-2.95z" stroke="#c53a3a" stroke-width=".05" fill="#c53a3a"/><path d="M175.1 428.85l4.88 14.18-9.27.17z" stroke="#c53a3a" stroke-width="3" fill="#c53a3a"/><path d="M-86.67 738.67h31M-86.61 738.67h-2.07M-55.72 738.67h2.05" stroke="#2e9f48" stroke-width="4" fill="none"/><path d="M-30 725a5 5 0 0 1 5-5h190a5 5 0 0 1 5 5v24a5 5 0 0 1-5 5H-25a5 5 0 0 1-5-5z" fill="none"/><use xlink:href="#t" transform="matrix(1,0,0,1,-25,725) translate(0 16)"/><use xlink:href="#u" transform="matrix(1,0,0,1,-25,725) translate(69.77777777777779 16)"/><use xlink:href="#v" transform="matrix(1,0,0,1,-25,725) translate(136.3888888888889 16)"/><path d="M-30 759a5 5 0 0 1 5-5h288a5 5 0 0 1 5 5v24a5 5 0 0 1-5 5H-25a5 5 0 0 1-5-5z" fill="none"/><use xlink:href="#w" transform="matrix(1,0,0,1,-25,759) translate(0 16)"/><use xlink:href="#x" transform="matrix(1,0,0,1,-25,759) translate(63.22222222222223 16)"/><use xlink:href="#y" transform="matrix(1,0,0,1,-25,759) translate(121 16)"/><use xlink:href="#z" transform="matrix(1,0,0,1,-25,759) translate(132.11111111111111 16)"/><use xlink:href="#A" transform="matrix(1,0,0,1,-25,759) translate(194.22222222222223 16)"/><path d="M-30 793a5 5 0 0 1 5-5h190a5 5 0 0 1 5 5v24a5 5 0 0 1-5 5H-25a5 5 0 0 1-5-5z" fill="none"/><use xlink:href="#B" transform="matrix(1,0,0,1,-25,793) translate(0 16)"/><use xlink:href="#C" transform="matrix(1,0,0,1,-25,793) translate(69.8888888888889 16)"/><use xlink:href="#D" transform="matrix(1,0,0,1,-25,793) translate(93.16666666666669 16)"/><path d="M-30 827a5 5 0 0 1 5-5h190a5 5 0 0 1 5 5v24a5 5 0 0 1-5 5H-25a5 5 0 0 1-5-5z" fill="none"/><use xlink:href="#E" transform="matrix(1,0,0,1,-25,827) translate(0 16)"/><path d="M425 635a5 5 0 0 1 5-5h115.96a5 5 0 0 1 5 5v26a5 5 0 0 1-5 5H430a5 5 0 0 1-5-5z" fill="none"/><use xlink:href="#i" transform="matrix(1,0,0,1,430,635) translate(0 16.6)"/><use xlink:href="#F" transform="matrix(1,0,0,1,430,635) translate(50.95 16.6)"/><path d="M290 705a5 5 0 0 1 5-5h142.96a5 5 0 0 1 5 5v21.6a5 5 0 0 1-5 5H295a5 5 0 0 1-5-5z" fill="none"/><g><use xlink:href="#G" transform="matrix(1,0,0,1,295,705) translate(0 14.6)"/><use xlink:href="#H" transform="matrix(1,0,0,1,295,705) translate(57 14.6)"/></g><path d="M385 570a5 5 0 0 1 5-5h115.96a5 5 0 0 1 5 5v26a5 5 0 0 1-5 5H390a5 5 0 0 1-5-5z" fill="none"/><g><use xlink:href="#I" transform="matrix(1,0,0,1,390,570) translate(0 16.6)"/><use xlink:href="#J" transform="matrix(1,0,0,1,390,570) translate(49.95 16.6)"/></g><path d="M-82.67 837.33H-72m10.67 0h10.66M-82.63 837.33h-1.54M-50.7 837.33h1.53" stroke="#7b4bb7" stroke-width="3" fill="none"/><path d="M-85.33 801.33h10.66m10.67 0h10.67M-85.3 801.33h-1.53M-53.37 801.33h1.54" stroke="#c53a3a" stroke-width="3" fill="none"/><path d="M-89.33 765.33h32M-89.3 765.33h-1.53M-57.37 765.33h1.54" stroke="#2b73d6" stroke-width="3" fill="none"/><path d="M715 223a5 5 0 0 1 5-5h147.3a5 5 0 0 1 5 5v42a5 5 0 0 1-5 5H720a5 5 0 0 1-5-5z" fill="none"/><g><use xlink:href="#K" transform="matrix(1,0,0,1,720,223.0000000000001) translate(0 24.6)"/><use xlink:href="#L" transform="matrix(1,0,0,1,720,223.0000000000001) translate(60 24.6)"/></g><defs><path fill="#202124" d="M212-179c-10-28-35-45-73-45-59 0-87 40-87 99 0 60 29 101 89 101 43 0 62-24 78-52l27 14C228-24 195 4 139 4 59 4 22-46 18-125c-6-104 99-153 187-111 19 9 31 26 39 46" id="M"/><path fill="#202124" d="M100-194c62-1 85 37 85 99 1 63-27 99-86 99S16-35 15-95c0-66 28-99 85-99zM99-20c44 1 53-31 53-75 0-43-8-75-51-75s-53 32-53 75 10 74 51 75" id="N"/><path fill="#202124" d="M117-194c89-4 53 116 60 194h-32v-121c0-31-8-49-39-48C34-167 62-67 57 0H25l-1-190h30c1 10-1 24 2 32 11-22 29-35 61-36" id="O"/><path fill="#202124" d="M100-194c63 0 86 42 84 106H49c0 40 14 67 53 68 26 1 43-12 49-29l28 8c-11 28-37 45-77 45C44 4 14-33 15-96c1-61 26-98 85-98zm52 81c6-60-76-77-97-28-3 7-6 17-6 28h103" id="P"/><path fill="#202124" d="M96-169c-40 0-48 33-48 73s9 75 48 75c24 0 41-14 43-38l32 2c-6 37-31 61-74 61-59 0-76-41-82-99-10-93 101-131 147-64 4 7 5 14 7 22l-32 3c-4-21-16-35-41-35" id="Q"/><path fill="#202124" d="M59-47c-2 24 18 29 38 22v24C64 9 27 4 27-40v-127H5v-23h24l9-43h21v43h35v23H59v120" id="R"/><path fill="#202124" d="M24-231v-30h32v30H24zM24 0v-190h32V0H24" id="S"/><path fill="#202124" d="M177-190C167-65 218 103 67 71c-23-6-38-20-44-43l32-5c15 47 100 32 89-28v-30C133-14 115 1 83 1 29 1 15-40 15-95c0-56 16-97 71-98 29-1 48 16 59 35 1-10 0-23 2-32h30zM94-22c36 0 50-32 50-73 0-42-14-75-50-75-39 0-46 34-46 75s6 73 46 73" id="T"/><g id="a"><use transform="matrix(0.05472636815920399,0,0,0.05472636815920399,0,0)" xlink:href="#M"/><use transform="matrix(0.05472636815920399,0,0,0.05472636815920399,14.174129353233832,0)" xlink:href="#N"/><use transform="matrix(0.05472636815920399,0,0,0.05472636815920399,25.119402985074633,0)" xlink:href="#O"/><use transform="matrix(0.05472636815920399,0,0,0.05472636815920399,36.06467661691543,0)" xlink:href="#O"/><use transform="matrix(0.05472636815920399,0,0,0.05472636815920399,47.009950248756226,0)" xlink:href="#P"/><use transform="matrix(0.05472636815920399,0,0,0.05472636815920399,57.955223880597025,0)" xlink:href="#Q"/><use transform="matrix(0.05472636815920399,0,0,0.05472636815920399,67.80597014925374,0)" xlink:href="#R"/><use transform="matrix(0.05472636815920399,0,0,0.05472636815920399,73.27860696517413,0)" xlink:href="#S"/><use transform="matrix(0.05472636815920399,0,0,0.05472636815920399,77.60199004975127,0)" xlink:href="#O"/><use transform="matrix(0.05472636815920399,0,0,0.05472636815920399,88.54726368159206,0)" xlink:href="#T"/></g><path fill="#202124" d="M30-248c87 1 191-15 191 75 0 78-77 80-158 76V0H30v-248zm33 125c57 0 124 11 124-50 0-59-68-47-124-48v98" id="U"/><path fill="#202124" d="M114-163C36-179 61-72 57 0H25l-1-190h30c1 12-1 29 2 39 6-27 23-49 58-41v29" id="V"/><path fill="#202124" d="M115-194c53 0 69 39 70 98 0 66-23 100-70 100C84 3 66-7 56-30L54 0H23l1-261h32v101c10-23 28-34 59-34zm-8 174c40 0 45-34 45-75 0-40-5-75-45-74-42 0-51 32-51 76 0 43 10 73 51 73" id="W"/><g id="b"><use transform="matrix(0.05472636815920399,0,0,0.05472636815920399,0,0)" xlink:href="#U"/><use transform="matrix(0.05472636815920399,0,0,0.05472636815920399,13.134328358208958,0)" xlink:href="#V"/><use transform="matrix(0.05472636815920399,0,0,0.05472636815920399,19.64676616915423,0)" xlink:href="#N"/><use transform="matrix(0.05472636815920399,0,0,0.05472636815920399,30.59203980099503,0)" xlink:href="#W"/><use transform="matrix(0.05472636815920399,0,0,0.05472636815920399,41.53731343283583,0)" xlink:href="#S"/><use transform="matrix(0.05472636815920399,0,0,0.05472636815920399,45.86069651741295,0)" xlink:href="#O"/><use transform="matrix(0.05472636815920399,0,0,0.05472636815920399,56.80597014925375,0)" xlink:href="#T"/></g><path fill="#202124" d="M185-189c-5-48-123-54-124 2 14 75 158 14 163 119 3 78-121 87-175 55-17-10-28-26-33-46l33-7c5 56 141 63 141-1 0-78-155-14-162-118-5-82 145-84 179-34 5 7 8 16 11 25" id="X"/><path fill="#202124" d="M141-36C126-15 110 5 73 4 37 3 15-17 15-53c-1-64 63-63 125-63 3-35-9-54-41-54-24 1-41 7-42 31l-33-3c5-37 33-52 76-52 45 0 72 20 72 64v82c-1 20 7 32 28 27v20c-31 9-61-2-59-35zM48-53c0 20 12 33 32 33 41-3 63-29 60-74-43 2-92-5-92 41" id="Y"/><path fill="#202124" d="M266 0h-40l-56-210L115 0H75L2-248h35L96-30l15-64 43-154h32l59 218 59-218h35" id="Z"/><path fill="#202124" d="M143 0L79-87 56-68V0H24v-261h32v163l83-92h37l-77 82L181 0h-38" id="aa"/><path fill="#202124" d="M24 0v-261h32V0H24" id="ab"/><path fill="#202124" d="M85-194c31 0 48 13 60 33l-1-100h32l1 261h-30c-2-10 0-23-3-31C134-8 116 4 85 4 32 4 16-35 15-94c0-66 23-100 70-100zm9 24c-40 0-46 34-46 75 0 40 6 74 45 74 42 0 51-32 51-76 0-42-9-74-50-73" id="ac"/><g id="c"><use transform="matrix(0.05472636815920399,0,0,0.05472636815920399,0,0)" xlink:href="#X"/><use transform="matrix(0.05472636815920399,0,0,0.05472636815920399,13.134328358208958,0)" xlink:href="#R"/><use transform="matrix(0.05472636815920399,0,0,0.05472636815920399,18.606965174129357,0)" xlink:href="#Y"/><use transform="matrix(0.05472636815920399,0,0,0.05472636815920399,29.552238805970152,0)" xlink:href="#V"/><use transform="matrix(0.05472636815920399,0,0,0.05472636815920399,36.06467661691543,0)" xlink:href="#R"/><use transform="matrix(0.05472636815920399,0,0,0.05472636815920399,41.53731343283583,0)" xlink:href="#S"/><use transform="matrix(0.05472636815920399,0,0,0.05472636815920399,45.86069651741295,0)" xlink:href="#O"/><use transform="matrix(0.05472636815920399,0,0,0.05472636815920399,56.80597014925375,0)" xlink:href="#T"/><use transform="matrix(0.05472636815920399,0,0,0.05472636815920399,67.75124378109454,0)" xlink:href="#Z"/><use transform="matrix(0.05472636815920399,0,0,0.05472636815920399,85.92039800995026,0)" xlink:href="#N"/><use transform="matrix(0.05472636815920399,0,0,0.05472636815920399,96.86567164179105,0)" xlink:href="#V"/><use transform="matrix(0.05472636815920399,0,0,0.05472636815920399,103.37810945273634,0)" xlink:href="#aa"/><use transform="matrix(0.05472636815920399,0,0,0.05472636815920399,113.22885572139305,0)" xlink:href="#ab"/><use transform="matrix(0.05472636815920399,0,0,0.05472636815920399,117.55223880597016,0)" xlink:href="#N"/><use transform="matrix(0.05472636815920399,0,0,0.05472636815920399,128.49751243781097,0)" xlink:href="#Y"/><use transform="matrix(0.05472636815920399,0,0,0.05472636815920399,139.44278606965176,0)" xlink:href="#ac"/></g><g id="d"><use transform="matrix(0.05472636815920399,0,0,0.05472636815920399,0,0)" xlink:href="#M"/><use transform="matrix(0.05472636815920399,0,0,0.05472636815920399,14.174129353233832,0)" xlink:href="#N"/><use transform="matrix(0.05472636815920399,0,0,0.05472636815920399,25.119402985074633,0)" xlink:href="#O"/><use transform="matrix(0.05472636815920399,0,0,0.05472636815920399,36.06467661691543,0)" xlink:href="#O"/><use transform="matrix(0.05472636815920399,0,0,0.05472636815920399,47.009950248756226,0)" xlink:href="#P"/><use transform="matrix(0.05472636815920399,0,0,0.05472636815920399,57.955223880597025,0)" xlink:href="#Q"/><use transform="matrix(0.05472636815920399,0,0,0.05472636815920399,67.80597014925374,0)" xlink:href="#R"/><use transform="matrix(0.05472636815920399,0,0,0.05472636815920399,73.27860696517413,0)" xlink:href="#P"/><use transform="matrix(0.05472636815920399,0,0,0.05472636815920399,84.22388059701494,0)" xlink:href="#ac"/></g><path fill="#202124" d="M115-194c55 1 70 41 70 98S169 2 115 4C84 4 66-9 55-30l1 105H24l-1-265h31l2 30c10-21 28-34 59-34zm-8 174c40 0 45-34 45-75s-6-73-45-74c-42 0-51 32-51 76 0 43 10 73 51 73" id="ad"/><g id="e"><use transform="matrix(0.05472636815920399,0,0,0.05472636815920399,0,0)" xlink:href="#X"/><use transform="matrix(0.05472636815920399,0,0,0.05472636815920399,13.134328358208958,0)" xlink:href="#R"/><use transform="matrix(0.05472636815920399,0,0,0.05472636815920399,18.606965174129357,0)" xlink:href="#N"/><use transform="matrix(0.05472636815920399,0,0,0.05472636815920399,29.552238805970152,0)" xlink:href="#ad"/><use transform="matrix(0.05472636815920399,0,0,0.05472636815920399,40.49751243781095,0)" xlink:href="#ad"/><use transform="matrix(0.05472636815920399,0,0,0.05472636815920399,51.442786069651746,0)" xlink:href="#S"/><use transform="matrix(0.05472636815920399,0,0,0.05472636815920399,55.76616915422886,0)" xlink:href="#O"/><use transform="matrix(0.05472636815920399,0,0,0.05472636815920399,66.71144278606967,0)" xlink:href="#T"/></g><g id="f"><use transform="matrix(0.05472636815920399,0,0,0.05472636815920399,0,0)" xlink:href="#X"/><use transform="matrix(0.05472636815920399,0,0,0.05472636815920399,13.134328358208958,0)" xlink:href="#R"/><use transform="matrix(0.05472636815920399,0,0,0.05472636815920399,18.606965174129357,0)" xlink:href="#N"/><use transform="matrix(0.05472636815920399,0,0,0.05472636815920399,29.552238805970152,0)" xlink:href="#ad"/><use transform="matrix(0.05472636815920399,0,0,0.05472636815920399,40.49751243781095,0)" xlink:href="#ad"/><use transform="matrix(0.05472636815920399,0,0,0.05472636815920399,51.442786069651746,0)" xlink:href="#P"/><use transform="matrix(0.05472636815920399,0,0,0.05472636815920399,62.388059701492544,0)" xlink:href="#ac"/></g><path fill="#202124" d="M63-220v92h138v28H63V0H30v-248h175v28H63" id="ae"/><path fill="#202124" d="M160-131c35 5 61 23 61 61C221 17 115-2 30 0v-248c76 3 177-17 177 60 0 33-19 50-47 57zm-97-11c50-1 110 9 110-42 0-47-63-36-110-37v79zm0 115c55-2 124 14 124-45 0-56-70-42-124-44v89" id="af"/><g id="g"><use transform="matrix(0.05472636815920399,0,0,0.05472636815920399,0,0)" xlink:href="#Z"/><use transform="matrix(0.05472636815920399,0,0,0.05472636815920399,17.840796019900502,0)" xlink:href="#Y"/><use transform="matrix(0.05472636815920399,0,0,0.05472636815920399,28.786069651741297,0)" xlink:href="#S"/><use transform="matrix(0.05472636815920399,0,0,0.05472636815920399,33.10945273631841,0)" xlink:href="#R"/><use transform="matrix(0.05472636815920399,0,0,0.05472636815920399,38.58208955223881,0)" xlink:href="#S"/><use transform="matrix(0.05472636815920399,0,0,0.05472636815920399,42.90547263681593,0)" xlink:href="#O"/><use transform="matrix(0.05472636815920399,0,0,0.05472636815920399,53.85074626865673,0)" xlink:href="#T"/><use transform="matrix(0.05472636815920399,0,0,0.05472636815920399,64.79601990049753,0)" xlink:href="#ae"/><use transform="matrix(0.05472636815920399,0,0,0.05472636815920399,76.7810945273632,0)" xlink:href="#N"/><use transform="matrix(0.05472636815920399,0,0,0.05472636815920399,87.726368159204,0)" xlink:href="#V"/><use transform="matrix(0.05472636815920399,0,0,0.05472636815920399,94.23880597014927,0)" xlink:href="#af"/><use transform="matrix(0.05472636815920399,0,0,0.05472636815920399,107.37313432835823,0)" xlink:href="#V"/><use transform="matrix(0.05472636815920399,0,0,0.05472636815920399,113.8855721393035,0)" xlink:href="#N"/><use transform="matrix(0.05472636815920399,0,0,0.05472636815920399,124.83084577114433,0)" xlink:href="#aa"/><use transform="matrix(0.05472636815920399,0,0,0.05472636815920399,134.68159203980102,0)" xlink:href="#P"/><use transform="matrix(0.05472636815920399,0,0,0.05472636815920399,145.6268656716418,0)" xlink:href="#V"/></g><path fill="#202124" d="M233-177c-1 41-23 64-60 70L243 0h-38l-65-103H63V0H30v-248c88 3 205-21 203 71zM63-129c60-2 137 13 137-47 0-61-80-42-137-45v92" id="ag"/><path fill="#202124" d="M135-143c-3-34-86-38-87 0 15 53 115 12 119 90S17 21 10-45l28-5c4 36 97 45 98 0-10-56-113-15-118-90-4-57 82-63 122-42 12 7 21 19 24 35" id="ah"/><g id="h"><use transform="matrix(0.05472636815920399,0,0,0.05472636815920399,0,0)" xlink:href="#ag"/><use transform="matrix(0.05472636815920399,0,0,0.05472636815920399,14.174129353233832,0)" xlink:href="#P"/><use transform="matrix(0.05472636815920399,0,0,0.05472636815920399,25.119402985074633,0)" xlink:href="#ah"/><use transform="matrix(0.05472636815920399,0,0,0.05472636815920399,34.97014925373135,0)" xlink:href="#R"/><use transform="matrix(0.05472636815920399,0,0,0.05472636815920399,40.442786069651746,0)" xlink:href="#Y"/><use transform="matrix(0.05472636815920399,0,0,0.05472636815920399,51.388059701492544,0)" xlink:href="#V"/><use transform="matrix(0.05472636815920399,0,0,0.05472636815920399,57.900497512437816,0)" xlink:href="#R"/><use transform="matrix(0.05472636815920399,0,0,0.05472636815920399,63.37313432835822,0)" xlink:href="#S"/><use transform="matrix(0.05472636815920399,0,0,0.05472636815920399,67.69651741293534,0)" xlink:href="#O"/><use transform="matrix(0.05472636815920399,0,0,0.05472636815920399,78.64179104477614,0)" xlink:href="#T"/></g><path d="M115-194c55 1 70 41 70 98S169 2 115 4C84 4 66-9 55-30l1 105H24l-1-265h31l2 30c10-21 28-34 59-34zm-8 174c40 0 45-34 45-75s-6-73-45-74c-42 0-51 32-51 76 0 43 10 73 51 73" id="ai"/><path d="M114-163C36-179 61-72 57 0H25l-1-190h30c1 12-1 29 2 39 6-27 23-49 58-41v29" id="aj"/><path d="M100-194c62-1 85 37 85 99 1 63-27 99-86 99S16-35 15-95c0-66 28-99 85-99zM99-20c44 1 53-31 53-75 0-43-8-75-51-75s-53 32-53 75 10 74 51 75" id="ak"/><path d="M115-194c53 0 69 39 70 98 0 66-23 100-70 100C84 3 66-7 56-30L54 0H23l1-261h32v101c10-23 28-34 59-34zm-8 174c40 0 45-34 45-75 0-40-5-75-45-74-42 0-51 32-51 76 0 43 10 73 51 73" id="al"/><path d="M100-194c63 0 86 42 84 106H49c0 40 14 67 53 68 26 1 43-12 49-29l28 8c-11 28-37 45-77 45C44 4 14-33 15-96c1-61 26-98 85-98zm52 81c6-60-76-77-97-28-3 7-6 17-6 28h103" id="am"/><g id="i"><use transform="matrix(0.05,0,0,0.05,0,0)" xlink:href="#ai"/><use transform="matrix(0.05,0,0,0.05,10,0)" xlink:href="#aj"/><use transform="matrix(0.05,0,0,0.05,15.949999999999998,0)" xlink:href="#ak"/><use transform="matrix(0.05,0,0,0.05,25.950000000000003,0)" xlink:href="#al"/><use transform="matrix(0.05,0,0,0.05,35.95,0)" xlink:href="#am"/></g><path d="M135-143c-3-34-86-38-87 0 15 53 115 12 119 90S17 21 10-45l28-5c4 36 97 45 98 0-10-56-113-15-118-90-4-57 82-63 122-42 12 7 21 19 24 35" id="an"/><path d="M84 4C-5 8 30-112 23-190h32v120c0 31 7 50 39 49 72-2 45-101 50-169h31l1 190h-30c-1-10 1-25-2-33-11 22-28 36-60 37" id="ao"/><path d="M96-169c-40 0-48 33-48 73s9 75 48 75c24 0 41-14 43-38l32 2c-6 37-31 61-74 61-59 0-76-41-82-99-10-93 101-131 147-64 4 7 5 14 7 22l-32 3c-4-21-16-35-41-35" id="ap"/><path d="M85-194c31 0 48 13 60 33l-1-100h32l1 261h-30c-2-10 0-23-3-31C134-8 116 4 85 4 32 4 16-35 15-94c0-66 23-100 70-100zm9 24c-40 0-46 34-46 75 0 40 6 74 45 74 42 0 51-32 51-76 0-42-9-74-50-73" id="aq"/><g id="j"><use transform="matrix(0.05,0,0,0.05,0,0)" xlink:href="#an"/><use transform="matrix(0.05,0,0,0.05,9,0)" xlink:href="#ao"/><use transform="matrix(0.05,0,0,0.05,19,0)" xlink:href="#ap"/><use transform="matrix(0.05,0,0,0.05,28,0)" xlink:href="#ap"/><use transform="matrix(0.05,0,0,0.05,37,0)" xlink:href="#am"/><use transform="matrix(0.05,0,0,0.05,47,0)" xlink:href="#am"/><use transform="matrix(0.05,0,0,0.05,57,0)" xlink:href="#aq"/><use transform="matrix(0.05,0,0,0.05,67,0)" xlink:href="#an"/></g><path d="M117-194c89-4 53 116 60 194h-32v-121c0-31-8-49-39-48C34-167 62-67 57 0H25l-1-190h30c1 10-1 24 2 32 11-22 29-35 61-36" id="ar"/><g id="k"><use transform="matrix(0.05,0,0,0.05,0,0)" xlink:href="#ar"/><use transform="matrix(0.05,0,0,0.05,10,0)" xlink:href="#ak"/></g><path d="M206 0h-36l-40-164L89 0H53L-1-190h32L70-26l43-164h34l41 164 42-164h31" id="as"/><path d="M143 0L79-87 56-68V0H24v-261h32v163l83-92h37l-77 82L181 0h-38" id="at"/><path d="M24 0v-261h32V0H24" id="au"/><path d="M141-36C126-15 110 5 73 4 37 3 15-17 15-53c-1-64 63-63 125-63 3-35-9-54-41-54-24 1-41 7-42 31l-33-3c5-37 33-52 76-52 45 0 72 20 72 64v82c-1 20 7 32 28 27v20c-31 9-61-2-59-35zM48-53c0 20 12 33 32 33 41-3 63-29 60-74-43 2-92-5-92 41" id="av"/><g id="l"><use transform="matrix(0.05,0,0,0.05,0,0)" xlink:href="#as"/><use transform="matrix(0.05,0,0,0.05,12.950000000000001,0)" xlink:href="#ak"/><use transform="matrix(0.05,0,0,0.05,22.950000000000003,0)" xlink:href="#aj"/><use transform="matrix(0.05,0,0,0.05,28.900000000000002,0)" xlink:href="#at"/><use transform="matrix(0.05,0,0,0.05,37.900000000000006,0)" xlink:href="#au"/><use transform="matrix(0.05,0,0,0.05,41.85000000000001,0)" xlink:href="#ak"/><use transform="matrix(0.05,0,0,0.05,51.85,0)" xlink:href="#av"/><use transform="matrix(0.05,0,0,0.05,61.85,0)" xlink:href="#aq"/></g><g id="m"><use transform="matrix(0.05,0,0,0.05,0,0)" xlink:href="#as"/><use transform="matrix(0.05,0,0,0.05,12.950000000000001,0)" xlink:href="#ak"/><use transform="matrix(0.05,0,0,0.05,22.950000000000003,0)" xlink:href="#aj"/><use transform="matrix(0.05,0,0,0.05,28.900000000000002,0)" xlink:href="#at"/><use transform="matrix(0.05,0,0,0.05,37.900000000000006,0)" xlink:href="#au"/><use transform="matrix(0.05,0,0,0.05,41.85000000000001,0)" xlink:href="#ak"/><use transform="matrix(0.05,0,0,0.05,51.85,0)" xlink:href="#av"/><use transform="matrix(0.05,0,0,0.05,61.85,0)" xlink:href="#aq"/></g><path d="M59-47c-2 24 18 29 38 22v24C64 9 27 4 27-40v-127H5v-23h24l9-43h21v43h35v23H59v120" id="aw"/><g id="n"><use transform="matrix(0.05,0,0,0.05,0,0)" xlink:href="#an"/><use transform="matrix(0.05,0,0,0.05,9,0)" xlink:href="#aw"/><use transform="matrix(0.05,0,0,0.05,14,0)" xlink:href="#av"/><use transform="matrix(0.05,0,0,0.05,24,0)" xlink:href="#aj"/><use transform="matrix(0.05,0,0,0.05,29.950000000000003,0)" xlink:href="#aw"/><use transform="matrix(0.05,0,0,0.05,34.95,0)" xlink:href="#an"/></g><path d="M87 75C49 33 22-17 22-94c0-76 28-126 65-167h31c-38 41-64 92-64 168S80 34 118 75H87" id="ax"/><path d="M33-261c38 41 65 92 65 168S71 34 33 75H2C39 34 66-17 66-93S39-220 2-261h31" id="ay"/><g id="o"><use transform="matrix(0.05,0,0,0.05,0,0)" xlink:href="#an"/><use transform="matrix(0.05,0,0,0.05,9,0)" xlink:href="#aw"/><use transform="matrix(0.05,0,0,0.05,14,0)" xlink:href="#ak"/><use transform="matrix(0.05,0,0,0.05,24,0)" xlink:href="#ai"/><use transform="matrix(0.05,0,0,0.05,34,0)" xlink:href="#ax"/><use transform="matrix(0.05,0,0,0.05,39.95,0)" xlink:href="#ay"/></g><path d="M24-231v-30h32v30H24zM24 0v-190h32V0H24" id="az"/><g id="p"><use transform="matrix(0.05,0,0,0.05,0,0)" xlink:href="#aq"/><use transform="matrix(0.05,0,0,0.05,10,0)" xlink:href="#az"/><use transform="matrix(0.05,0,0,0.05,13.949999999999998,0)" xlink:href="#an"/><use transform="matrix(0.05,0,0,0.05,22.95,0)" xlink:href="#ap"/><use transform="matrix(0.05,0,0,0.05,31.950000000000003,0)" xlink:href="#ak"/><use transform="matrix(0.05,0,0,0.05,41.95,0)" xlink:href="#ar"/><use transform="matrix(0.05,0,0,0.05,51.95,0)" xlink:href="#ar"/><use transform="matrix(0.05,0,0,0.05,61.95,0)" xlink:href="#am"/><use transform="matrix(0.05,0,0,0.05,71.95,0)" xlink:href="#ap"/><use transform="matrix(0.05,0,0,0.05,80.95,0)" xlink:href="#aw"/></g><g id="q"><use transform="matrix(0.05,0,0,0.05,0,0)" xlink:href="#ap"/><use transform="matrix(0.05,0,0,0.05,9,0)" xlink:href="#ak"/><use transform="matrix(0.05,0,0,0.05,19,0)" xlink:href="#ar"/><use transform="matrix(0.05,0,0,0.05,29,0)" xlink:href="#ar"/><use transform="matrix(0.05,0,0,0.05,39,0)" xlink:href="#am"/><use transform="matrix(0.05,0,0,0.05,49,0)" xlink:href="#ap"/><use transform="matrix(0.05,0,0,0.05,58,0)" xlink:href="#aw"/><use transform="matrix(0.05,0,0,0.05,63,0)" xlink:href="#az"/><use transform="matrix(0.05,0,0,0.05,66.95,0)" xlink:href="#ak"/><use transform="matrix(0.05,0,0,0.05,76.95,0)" xlink:href="#ar"/></g><path d="M177-190C167-65 218 103 67 71c-23-6-38-20-44-43l32-5c15 47 100 32 89-28v-30C133-14 115 1 83 1 29 1 15-40 15-95c0-56 16-97 71-98 29-1 48 16 59 35 1-10 0-23 2-32h30zM94-22c36 0 50-32 50-73 0-42-14-75-50-75-39 0-46 34-46 75s6 73 46 73" id="aA"/><path d="M103-251c84 0 111 97 45 133-19 10-37 24-39 52H78c0-63 77-55 77-114 0-30-21-42-52-43-32 0-53 17-56 46l-32-2c7-45 34-72 88-72zM77 0v-35h34V0H77" id="aB"/><g id="r"><use transform="matrix(0.05,0,0,0.05,0,0)" xlink:href="#aq"/><use transform="matrix(0.05,0,0,0.05,10,0)" xlink:href="#am"/><use transform="matrix(0.05,0,0,0.05,20,0)" xlink:href="#aA"/><use transform="matrix(0.05,0,0,0.05,30,0)" xlink:href="#aj"/><use transform="matrix(0.05,0,0,0.05,35.95,0)" xlink:href="#av"/><use transform="matrix(0.05,0,0,0.05,45.95,0)" xlink:href="#aq"/><use transform="matrix(0.05,0,0,0.05,55.95,0)" xlink:href="#am"/><use transform="matrix(0.05,0,0,0.05,65.95,0)" xlink:href="#aq"/><use transform="matrix(0.05,0,0,0.05,75.95,0)" xlink:href="#aB"/></g><path d="M101-234c-31-9-42 10-38 44h38v23H63V0H32v-167H5v-23h27c-7-52 17-82 69-68v24" id="aC"/><g id="s"><use transform="matrix(0.05,0,0,0.05,0,0)" xlink:href="#aC"/><use transform="matrix(0.05,0,0,0.05,5,0)" xlink:href="#av"/><use transform="matrix(0.05,0,0,0.05,15,0)" xlink:href="#az"/><use transform="matrix(0.05,0,0,0.05,18.95,0)" xlink:href="#au"/><use transform="matrix(0.05,0,0,0.05,22.9,0)" xlink:href="#an"/></g><path d="M190 0L58-211 59 0H30v-248h39L202-35l-2-213h31V0h-41" id="aD"/><path d="M210-169c-67 3-38 105-44 169h-31v-121c0-29-5-50-35-48C34-165 62-65 56 0H25l-1-190h30c1 10-1 24 2 32 10-44 99-50 107 0 11-21 27-35 58-36 85-2 47 119 55 194h-31v-121c0-29-5-49-35-48" id="aE"/><g id="t"><use transform="matrix(0.05555555555555555,0,0,0.05555555555555555,0,0)" xlink:href="#aD"/><use transform="matrix(0.05555555555555555,0,0,0.05555555555555555,14.388888888888888,0)" xlink:href="#ak"/><use transform="matrix(0.05555555555555555,0,0,0.05555555555555555,25.5,0)" xlink:href="#aj"/><use transform="matrix(0.05555555555555555,0,0,0.05555555555555555,32.111111111111114,0)" xlink:href="#aE"/><use transform="matrix(0.05555555555555555,0,0,0.05555555555555555,48.72222222222223,0)" xlink:href="#av"/><use transform="matrix(0.05555555555555555,0,0,0.05555555555555555,59.83333333333334,0)" xlink:href="#au"/></g><g id="u"><use transform="matrix(0.05555555555555555,0,0,0.05555555555555555,0,0)" xlink:href="#an"/><use transform="matrix(0.05555555555555555,0,0,0.05555555555555555,10,0)" xlink:href="#aw"/><use transform="matrix(0.05555555555555555,0,0,0.05555555555555555,15.555555555555555,0)" xlink:href="#av"/><use transform="matrix(0.05555555555555555,0,0,0.05555555555555555,26.666666666666664,0)" xlink:href="#aj"/><use transform="matrix(0.05555555555555555,0,0,0.05555555555555555,33.27777777777777,0)" xlink:href="#aw"/><use transform="matrix(0.05555555555555555,0,0,0.05555555555555555,38.83333333333333,0)" xlink:href="#ao"/><use transform="matrix(0.05555555555555555,0,0,0.05555555555555555,49.94444444444444,0)" xlink:href="#ai"/></g><g id="v"><use transform="matrix(0.05555555555555555,0,0,0.05555555555555555,0,0)" xlink:href="#aC"/><use transform="matrix(0.05555555555555555,0,0,0.05555555555555555,5.555555555555555,0)" xlink:href="#au"/><use transform="matrix(0.05555555555555555,0,0,0.05555555555555555,9.944444444444443,0)" xlink:href="#ak"/><use transform="matrix(0.05555555555555555,0,0,0.05555555555555555,21.055555555555554,0)" xlink:href="#as"/></g><path d="M197 0v-115H63V0H30v-248h33v105h134v-105h34V0h-34" id="aF"/><path d="M106-169C34-169 62-67 57 0H25v-261h32l-1 103c12-21 28-36 61-36 89 0 53 116 60 194h-32v-121c2-32-8-49-39-48" id="aG"/><g id="w"><use transform="matrix(0.05555555555555555,0,0,0.05555555555555555,0,0)" xlink:href="#aF"/><use transform="matrix(0.05555555555555555,0,0,0.05555555555555555,14.388888888888888,0)" xlink:href="#am"/><use transform="matrix(0.05555555555555555,0,0,0.05555555555555555,25.5,0)" xlink:href="#av"/><use transform="matrix(0.05555555555555555,0,0,0.05555555555555555,36.611111111111114,0)" xlink:href="#au"/><use transform="matrix(0.05555555555555555,0,0,0.05555555555555555,41,0)" xlink:href="#aw"/><use transform="matrix(0.05555555555555555,0,0,0.05555555555555555,46.55555555555556,0)" xlink:href="#aG"/></g><g id="x"><use transform="matrix(0.05555555555555555,0,0,0.05555555555555555,0,0)" xlink:href="#ap"/><use transform="matrix(0.05555555555555555,0,0,0.05555555555555555,10,0)" xlink:href="#aG"/><use transform="matrix(0.05555555555555555,0,0,0.05555555555555555,21.11111111111111,0)" xlink:href="#am"/><use transform="matrix(0.05555555555555555,0,0,0.05555555555555555,32.22222222222222,0)" xlink:href="#ap"/><use transform="matrix(0.05555555555555555,0,0,0.05555555555555555,42.22222222222222,0)" xlink:href="#at"/></g><path d="M0 4l72-265h28L28 4H0" id="aH"/><use transform="matrix(0.05555555555555555,0,0,0.05555555555555555,0,0)" xlink:href="#aH" id="y"/><g id="z"><use transform="matrix(0.05555555555555555,0,0,0.05555555555555555,0,0)" xlink:href="#al"/><use transform="matrix(0.05555555555555555,0,0,0.05555555555555555,11.11111111111111,0)" xlink:href="#aj"/><use transform="matrix(0.05555555555555555,0,0,0.05555555555555555,17.72222222222222,0)" xlink:href="#ak"/><use transform="matrix(0.05555555555555555,0,0,0.05555555555555555,28.833333333333332,0)" xlink:href="#at"/><use transform="matrix(0.05555555555555555,0,0,0.05555555555555555,38.83333333333333,0)" xlink:href="#am"/><use transform="matrix(0.05555555555555555,0,0,0.05555555555555555,49.94444444444444,0)" xlink:href="#aj"/></g><path d="M108 0H70L1-190h34L89-25l56-165h34" id="aI"/><path d="M179-190L93 31C79 59 56 82 12 73V49c39 6 53-20 64-50L1-190h34L92-34l54-156h33" id="aJ"/><g id="A"><use transform="matrix(0.05555555555555555,0,0,0.05555555555555555,0,0)" xlink:href="#aj"/><use transform="matrix(0.05555555555555555,0,0,0.05555555555555555,6.611111111111111,0)" xlink:href="#am"/><use transform="matrix(0.05555555555555555,0,0,0.05555555555555555,17.72222222222222,0)" xlink:href="#ap"/><use transform="matrix(0.05555555555555555,0,0,0.05555555555555555,27.72222222222222,0)" xlink:href="#ak"/><use transform="matrix(0.05555555555555555,0,0,0.05555555555555555,38.83333333333333,0)" xlink:href="#aI"/><use transform="matrix(0.05555555555555555,0,0,0.05555555555555555,48.83333333333333,0)" xlink:href="#am"/><use transform="matrix(0.05555555555555555,0,0,0.05555555555555555,59.94444444444444,0)" xlink:href="#aj"/><use transform="matrix(0.05555555555555555,0,0,0.05555555555555555,66.55555555555556,0)" xlink:href="#aJ"/></g><path d="M233-177c-1 41-23 64-60 70L243 0h-38l-65-103H63V0H30v-248c88 3 205-21 203 71zM63-129c60-2 137 13 137-47 0-61-80-42-137-45v92" id="aK"/><g id="B"><use transform="matrix(0.05555555555555555,0,0,0.05555555555555555,0,0)" xlink:href="#aK"/><use transform="matrix(0.05555555555555555,0,0,0.05555555555555555,14.388888888888888,0)" xlink:href="#am"/><use transform="matrix(0.05555555555555555,0,0,0.05555555555555555,25.5,0)" xlink:href="#an"/><use transform="matrix(0.05555555555555555,0,0,0.05555555555555555,35.5,0)" xlink:href="#aw"/><use transform="matrix(0.05555555555555555,0,0,0.05555555555555555,41.05555555555556,0)" xlink:href="#av"/><use transform="matrix(0.05555555555555555,0,0,0.05555555555555555,52.16666666666667,0)" xlink:href="#aj"/><use transform="matrix(0.05555555555555555,0,0,0.05555555555555555,58.777777777777786,0)" xlink:href="#aw"/></g><g id="C"><use transform="matrix(0.05555555555555555,0,0,0.05555555555555555,0,0)" xlink:href="#ak"/><use transform="matrix(0.05555555555555555,0,0,0.05555555555555555,11.11111111111111,0)" xlink:href="#aj"/></g><g id="D"><use transform="matrix(0.05555555555555555,0,0,0.05555555555555555,0,0)" xlink:href="#aj"/><use transform="matrix(0.05555555555555555,0,0,0.05555555555555555,6.611111111111111,0)" xlink:href="#am"/><use transform="matrix(0.05555555555555555,0,0,0.05555555555555555,17.72222222222222,0)" xlink:href="#al"/><use transform="matrix(0.05555555555555555,0,0,0.05555555555555555,28.833333333333332,0)" xlink:href="#ao"/><use transform="matrix(0.05555555555555555,0,0,0.05555555555555555,39.94444444444444,0)" xlink:href="#az"/><use transform="matrix(0.05555555555555555,0,0,0.05555555555555555,44.33333333333333,0)" xlink:href="#au"/><use transform="matrix(0.05555555555555555,0,0,0.05555555555555555,48.722222222222214,0)" xlink:href="#aq"/></g><path d="M185-189c-5-48-123-54-124 2 14 75 158 14 163 119 3 78-121 87-175 55-17-10-28-26-33-46l33-7c5 56 141 63 141-1 0-78-155-14-162-118-5-82 145-84 179-34 5 7 8 16 11 25" id="aL"/><g id="E"><use transform="matrix(0.05555555555555555,0,0,0.05555555555555555,0,0)" xlink:href="#aL"/><use transform="matrix(0.05555555555555555,0,0,0.05555555555555555,13.333333333333332,0)" xlink:href="#aG"/><use transform="matrix(0.05555555555555555,0,0,0.05555555555555555,24.444444444444443,0)" xlink:href="#ao"/><use transform="matrix(0.05555555555555555,0,0,0.05555555555555555,35.55555555555556,0)" xlink:href="#aw"/><use transform="matrix(0.05555555555555555,0,0,0.05555555555555555,41.111111111111114,0)" xlink:href="#aq"/><use transform="matrix(0.05555555555555555,0,0,0.05555555555555555,52.22222222222223,0)" xlink:href="#ak"/><use transform="matrix(0.05555555555555555,0,0,0.05555555555555555,63.33333333333334,0)" xlink:href="#as"/><use transform="matrix(0.05555555555555555,0,0,0.05555555555555555,77.72222222222223,0)" xlink:href="#ar"/></g><g id="F"><use transform="matrix(0.05,0,0,0.05,0,0)" xlink:href="#an"/><use transform="matrix(0.05,0,0,0.05,9,0)" xlink:href="#ao"/><use transform="matrix(0.05,0,0,0.05,19,0)" xlink:href="#ap"/><use transform="matrix(0.05,0,0,0.05,28,0)" xlink:href="#ap"/><use transform="matrix(0.05,0,0,0.05,37,0)" xlink:href="#am"/><use transform="matrix(0.05,0,0,0.05,47,0)" xlink:href="#an"/><use transform="matrix(0.05,0,0,0.05,56,0)" xlink:href="#an"/></g><g id="G"><use transform="matrix(0.05,0,0,0.05,0,0)" xlink:href="#an"/><use transform="matrix(0.05,0,0,0.05,9,0)" xlink:href="#ak"/><use transform="matrix(0.05,0,0,0.05,19,0)" xlink:href="#ap"/><use transform="matrix(0.05,0,0,0.05,28,0)" xlink:href="#at"/><use transform="matrix(0.05,0,0,0.05,37,0)" xlink:href="#am"/><use transform="matrix(0.05,0,0,0.05,47,0)" xlink:href="#aw"/></g><g id="H"><use transform="matrix(0.05,0,0,0.05,0,0)" xlink:href="#aq"/><use transform="matrix(0.05,0,0,0.05,10,0)" xlink:href="#az"/><use transform="matrix(0.05,0,0,0.05,13.949999999999998,0)" xlink:href="#an"/><use transform="matrix(0.05,0,0,0.05,22.95,0)" xlink:href="#ap"/><use transform="matrix(0.05,0,0,0.05,31.950000000000003,0)" xlink:href="#ak"/><use transform="matrix(0.05,0,0,0.05,41.95,0)" xlink:href="#ar"/><use transform="matrix(0.05,0,0,0.05,51.95,0)" xlink:href="#ar"/><use transform="matrix(0.05,0,0,0.05,61.95,0)" xlink:href="#am"/><use transform="matrix(0.05,0,0,0.05,71.95,0)" xlink:href="#ap"/><use transform="matrix(0.05,0,0,0.05,80.95,0)" xlink:href="#aw"/></g><g id="I"><use transform="matrix(0.05,0,0,0.05,0,0)" xlink:href="#aA"/><use transform="matrix(0.05,0,0,0.05,10,0)" xlink:href="#aj"/><use transform="matrix(0.05,0,0,0.05,15.949999999999998,0)" xlink:href="#av"/><use transform="matrix(0.05,0,0,0.05,25.950000000000003,0)" xlink:href="#ap"/><use transform="matrix(0.05,0,0,0.05,34.95,0)" xlink:href="#am"/></g><path d="M141 0L90-78 38 0H4l68-98-65-92h35l48 74 47-74h35l-64 92 68 98h-35" id="aM"/><g id="J"><use transform="matrix(0.05,0,0,0.05,0,0)" xlink:href="#am"/><use transform="matrix(0.05,0,0,0.05,10,0)" xlink:href="#aM"/><use transform="matrix(0.05,0,0,0.05,19,0)" xlink:href="#ai"/><use transform="matrix(0.05,0,0,0.05,29,0)" xlink:href="#az"/><use transform="matrix(0.05,0,0,0.05,32.95,0)" xlink:href="#aj"/><use transform="matrix(0.05,0,0,0.05,38.900000000000006,0)" xlink:href="#am"/><use transform="matrix(0.05,0,0,0.05,48.900000000000006,0)" xlink:href="#an"/></g><g id="K"><use transform="matrix(0.05,0,0,0.05,0,0)" xlink:href="#ao"/><use transform="matrix(0.05,0,0,0.05,10,0)" xlink:href="#ai"/><use transform="matrix(0.05,0,0,0.05,20,0)" xlink:href="#aq"/><use transform="matrix(0.05,0,0,0.05,30,0)" xlink:href="#av"/><use transform="matrix(0.05,0,0,0.05,40,0)" xlink:href="#aw"/><use transform="matrix(0.05,0,0,0.05,45,0)" xlink:href="#am"/></g><g id="L"><use transform="matrix(0.05,0,0,0.05,0,0)" xlink:href="#aj"/><use transform="matrix(0.05,0,0,0.05,5.95,0)" xlink:href="#am"/><use transform="matrix(0.05,0,0,0.05,15.949999999999998,0)" xlink:href="#ap"/><use transform="matrix(0.05,0,0,0.05,24.95,0)" xlink:href="#am"/><use transform="matrix(0.05,0,0,0.05,34.95,0)" xlink:href="#az"/><use transform="matrix(0.05,0,0,0.05,38.900000000000006,0)" xlink:href="#aI"/><use transform="matrix(0.05,0,0,0.05,47.900000000000006,0)" xlink:href="#am"/><use transform="matrix(0.05,0,0,0.05,57.900000000000006,0)" xlink:href="#aq"/></g></defs></g></svg>